<?xml version="1.0" encoding="iso-8859-1"?>
<!-- Generator: Adobe Illustrator 19.0.0, SVG Export Plug-In . SVG Version: 6.00 Build 0)  -->
<svg version="1.1" id="Capa_1" xmlns="http://www.w3.org/2000/svg" xmlns:xlink="http://www.w3.org/1999/xlink" x="0px" y="0px"
	 viewBox="0 0 512 512" style="enable-background:new 0 0 512 512;" xml:space="preserve">
<g>
	<g>
		<path style="fill:#ffffff" d="M508.469,251.901c-3.471-2.945-8.495-3.173-12.22-0.554c-7.977,5.608-32.251,22.676-83.886-28.961
			c-5.69-5.689-11.983-10.322-18.813-13.903c21.678-31.626,33.297-70.076,33.68-111.801c0.049-5.376-4.161-9.829-9.532-10.081
			c-42.931-2.01-81.531,9.817-112.282,34.265c-3.651-7.242-8.466-13.893-14.449-19.877c-3.905-3.905-10.237-3.905-14.143,0
			c-3.905,3.905-3.905,10.237,0,14.143c35.851,35.85,5.074,94.264-3.318,108.512c-5.08-3.343-10.615-5.865-16.441-7.514
			c17.028-20.822,19.052-52.324,2.919-77.689c-2.965-4.66-9.146-6.035-13.805-3.07c-4.66,2.964-6.035,9.145-3.071,13.805
			c9.39,14.763,10.226,32.341,3.674,46.078c-2.597-10.415-7.949-20.129-15.734-27.914c-2.923-2.923-6.099-5.5-9.472-7.726
			c7.139-21.332,1.716-45.295-14.449-61.461c-3.931-3.931-8.282-7.184-12.903-9.793c4.757-16.771,18.362-37.422,40.795-54.052
			c-0.389,5.03-0.099,10.192,0.875,15.474c1.001,5.431,6.213,9.022,11.647,8.022c5.431-1.001,9.023-6.215,8.022-11.647
			c-1.954-10.604,0.153-20.108,6.443-29.054c2.619-3.725,2.391-8.748-0.554-12.22s-7.864-4.518-11.967-2.54
			c-41.448,19.971-65.958,52.359-74.101,79.239c-18.674-3.344-38.637,2.17-53.04,16.572c-17.177,17.178-21.714,42.267-13.645,63.642
			c-12.645,1.834-24.559,7.657-33.799,16.896c-11.324,11.323-17.56,26.378-17.56,42.392c0,8.953,1.953,17.605,5.651,25.475
			c-10.224,2.667-19.685,7.995-27.273,15.583c-11.324,11.323-17.56,26.378-17.56,42.392c0,9.585,2.25,18.819,6.472,27.122
			c-2.497,1.823-4.863,3.832-7.068,6.038C6.236,349.015,0,364.07,0,380.084s6.236,31.068,17.559,42.392
			c0.492,0.492,0.999,0.958,1.503,1.429c-2.565,18.472,3.651,37.445,16.958,50.752c11.338,11.337,26.785,17.532,42.534,17.531
			c2.737,0,5.482-0.194,8.217-0.574c0.471,0.504,0.938,1.012,1.429,1.504c11.688,11.688,27.04,17.531,42.392,17.531
			c15.352,0,30.705-5.845,42.392-17.532c2.211-2.211,4.225-4.583,6.051-7.087c8.493,4.299,17.799,6.462,27.109,6.462
			c15.352,0,30.705-5.844,42.392-17.53c7.588-7.588,12.915-17.05,15.582-27.274c7.87,3.698,16.522,5.651,25.475,5.651
			c16.014,0,31.068-6.236,42.392-17.56c8.721-8.72,14.406-19.859,16.557-31.741c8.013,3.731,16.686,5.599,25.362,5.599
			c15.35,0,30.706-5.845,42.392-17.53c14.746-14.747,20.179-35.326,16.319-54.38c12.401-3.858,25.226-10.94,37.05-20.583
			c16.893-13.778,31.189-32.2,41.344-53.274C512.985,259.766,511.941,254.847,508.469,251.901z M312.293,141.188
			c25.84-22.887,57.625-34.579,94.624-34.811c-1.975,36.132-13.042,68.047-32.913,95.059c-15.319-3.319-32.546-2.467-51.245,2.668
			c-0.219,0.06-0.433,0.124-0.651,0.185l24.494-24.494c3.905-3.905,3.905-10.237,0-14.143c-3.905-3.906-10.237-3.905-14.143,0
			l-22.598,22.598C314.247,171.195,315.035,155.393,312.293,141.188z M240.649,233.85c10.671,0,20.704,4.156,28.249,11.702
			c7.545,7.545,11.701,17.578,11.701,28.249c0,10.671-4.156,20.703-11.701,28.249c-15.282,15.286-39.965,15.563-55.603,0.851
			c-0.031-0.031-0.064-0.06-0.096-0.091c-0.267-0.253-0.538-0.499-0.8-0.76c-15.577-15.576-15.577-40.922,0-56.499
			C219.944,238.006,229.977,233.85,240.649,233.85z M216.904,181.484c8.836,8.833,12.966,21.397,11.315,33.661
			c-11.271,2.365-21.63,7.931-29.963,16.265c-5.39,5.39-9.521,11.564-12.425,18.153c-9.53-0.682-18.62-4.775-25.426-11.582
			c-2.105-2.105-3.937-4.411-5.498-6.863c-0.069-0.114-0.14-0.225-0.213-0.335c-3.897-6.26-5.991-13.493-5.991-21.05
			c0-10.671,4.156-20.704,11.702-28.25c7.545-7.545,17.578-11.701,28.249-11.701C199.325,169.782,209.358,173.938,216.904,181.484z
			 M167.545,399.629c-3.678,3.678-7.95,6.544-12.596,8.523c-0.174,0.067-0.344,0.142-0.514,0.219
			c-4.741,1.941-9.861,2.961-15.139,2.961c-10.29,0-19.979-3.875-27.425-10.917c-0.558-0.517-1.096-1.052-1.612-1.612
			c-7.041-7.445-10.914-17.134-10.914-27.423c0-5.287,1.023-10.415,2.97-15.164c0.07-0.156,0.139-0.311,0.201-0.471
			c1.979-4.653,4.848-8.932,8.531-12.615c3.094-3.094,6.59-5.601,10.425-7.509c9.969,6.577,21.483,9.865,33.001,9.863
			c3.978,0,7.954-0.401,11.868-1.186c-0.777,3.878-1.178,7.86-1.178,11.905c0,11.915,3.458,23.296,9.889,33.007
			C173.144,393.042,170.638,396.537,167.545,399.629z M126.222,313.811c-7.545-7.546-11.701-17.578-11.701-28.249
			c0-4.216,0.659-8.329,1.909-12.232c0.069-0.194,0.137-0.39,0.195-0.59c1.941-5.745,5.184-11.014,9.598-15.427
			c4.514-4.514,9.941-7.823,15.922-9.749c1.288,1.576,2.659,3.1,4.119,4.559c9.383,9.382,21.638,15.319,34.657,17.024
			c-0.951,12.324,1.878,24.881,8.495,35.775c-1.795,3.242-4.028,6.223-6.694,8.889C167.145,329.386,141.8,329.388,126.222,313.811z
			 M136.484,112.295c15.577-15.577,40.923-15.577,56.499,0c10.342,10.342,14.085,25.471,10.161,39.241
			c-4.684-1.157-9.54-1.756-14.489-1.756c-16.013,0-31.068,6.236-42.391,17.559c-1.77,1.77-3.4,3.641-4.917,5.583
			c-1.721-1.244-3.351-2.617-4.862-4.128C120.908,153.218,120.908,127.872,136.484,112.295z M89.04,192.833
			c8.374-8.374,20.049-12.54,31.771-11.509c0.503,0.542,1.005,1.084,1.532,1.612c2.894,2.894,6.069,5.466,9.47,7.702
			c-2.034,6.075-3.108,12.5-3.108,19.094c0,6.987,1.188,13.79,3.467,20.182c-7.475,2.984-14.287,7.454-20.091,13.257
			c-4.347,4.347-7.936,9.247-10.718,14.537c-4.569-1.983-8.749-4.802-12.323-8.375c-0.457-0.457-0.901-0.925-1.333-1.4
			c-0.022-0.025-0.045-0.049-0.067-0.073c-6.657-7.354-10.301-16.785-10.301-26.776C77.338,210.411,81.494,200.379,89.04,192.833z
			 M49.858,276.283c7.011-7.011,16.419-11.128,26.269-11.624c5.553,5.248,12.001,9.349,19.031,12.135
			c-0.419,2.878-0.635,5.807-0.635,8.768c0,13.054,4.146,25.469,11.812,35.747c-3.363,2.219-6.521,4.77-9.429,7.679
			c-4.378,4.378-7.986,9.319-10.777,14.653c-13.099,2.693-26.684-1.275-36.27-10.86c-1.192-1.193-2.29-2.454-3.31-3.763
			c-0.059-0.08-0.122-0.156-0.184-0.235c-5.318-6.932-8.208-15.368-8.208-24.251C38.156,293.861,42.312,283.829,49.858,276.283z
			 M50.163,460.514c-6.722-6.722-10.683-15.327-11.533-24.419c6.853,2.597,14.085,3.912,21.322,3.912
			c3.993,0,7.985-0.405,11.914-1.195c-2.224,11.049-1.313,22.601,2.717,33.235C65.489,471.197,56.884,467.236,50.163,460.514z
			 M88.202,408.333c-14.198,14.2-36.508,15.45-52.143,3.764c-0.03-0.023-0.06-0.047-0.091-0.07
			c-1.485-1.117-2.914-2.343-4.265-3.694C24.156,400.787,20,390.755,20,380.084s4.156-20.703,11.702-28.25
			c1.509-1.509,3.13-2.882,4.843-4.122c11.343,10.923,26.212,16.784,41.483,16.784c0.575,0,1.151-0.016,1.727-0.033
			c-0.26,2.281-0.408,4.587-0.408,6.917c0,12.579,3.863,24.557,11.001,34.608C89.66,406.793,88.952,407.582,88.202,408.333z
			 M158.841,478.974c-15.575,15.579-40.921,15.58-56.498,0c-1.351-1.351-2.577-2.78-3.693-4.265
			c-0.023-0.031-0.047-0.061-0.071-0.091c-11.684-15.635-10.434-37.944,3.764-52.143c0.751-0.751,1.54-1.459,2.345-2.146
			c10.052,7.139,22.03,11.002,34.608,11.002c2.328,0,4.633-0.147,6.912-0.408c-0.458,15.871,5.415,31.446,16.75,43.215
			C161.719,475.848,160.349,477.466,158.841,478.974z M234.393,460.817c-14.342,14.343-36.962,15.468-52.617,3.398
			c-0.022-0.016-0.043-0.034-0.065-0.05c-1.323-1.025-2.603-2.133-3.817-3.347c-9.585-9.585-13.554-23.169-10.86-36.27
			c5.334-2.791,10.274-6.399,14.653-10.777c2.909-2.909,5.46-6.067,7.679-9.43c10.278,7.666,22.693,11.812,35.747,11.812
			c2.961,0,5.889-0.216,8.768-0.635c2.787,7.031,6.888,13.48,12.137,19.033C245.526,444.396,241.403,453.807,234.393,460.817z
			 M237.866,394.074c-0.162,0.048-0.321,0.102-0.479,0.158c-3.915,1.259-8.042,1.922-12.273,1.922
			c-10.671,0-20.704-4.156-28.25-11.702c-7.545-7.546-11.701-17.578-11.701-28.249c0-10.671,4.156-20.703,11.702-28.249
			c2.392-2.393,5.036-4.444,7.896-6.138c10.598,7.932,23.24,11.908,35.888,11.908c1.546,0,3.092-0.076,4.635-0.194
			c1.684,13.012,7.594,25.207,17.043,34.656c0.222,0.222,0.454,0.427,0.678,0.645c-1.944,5.86-5.21,11.192-9.641,15.623
			C248.932,388.885,243.639,392.136,237.866,394.074z M317.843,421.636c-7.546,7.546-17.578,11.702-28.25,11.702
			s-20.704-4.156-28.25-11.702c-3.573-3.573-6.392-7.754-8.375-12.323c5.29-2.782,10.19-6.372,14.537-10.719
			c5.302-5.302,9.504-11.463,12.47-18.203c7.841,3.542,16.29,5.324,24.742,5.324c6.451,0,12.898-1.045,19.077-3.109
			c1.665,2.537,3.517,4.947,5.557,7.212C330.395,401.552,326.213,413.267,317.843,421.636z M280.509,357.564
			c-0.004-0.004-0.009-0.007-0.013-0.01c-1.399-1.069-2.75-2.232-4.028-3.51c-6.855-6.855-10.912-15.883-11.583-25.425
			c6.589-2.904,12.764-7.035,18.154-12.425c8.335-8.335,13.902-18.696,16.266-29.969c12.272-1.677,24.744,2.403,33.662,11.321
			c7.546,7.544,11.701,17.576,11.701,28.248c0,10.671-4.156,20.703-11.702,28.249C318.673,368.336,296.158,369.503,280.509,357.564z
			 M402.154,377.964c-15.493,15.492-40.644,15.569-56.24,0.246c-0.002-0.002-0.003-0.004-0.005-0.006
			c-0.088-0.087-0.182-0.176-0.281-0.269c-1.504-1.507-2.871-3.126-4.106-4.836c1.936-1.508,3.809-3.135,5.587-4.914
			c11.324-11.323,17.56-26.378,17.56-42.392c0-4.952-0.6-9.811-1.758-14.498c13.772-3.96,28.814-0.261,39.243,10.168
			C417.73,337.042,417.73,362.388,402.154,377.964z M425.41,319.033c-2.488-4.178-5.523-8.119-9.115-11.711
			c-16.3-16.299-40.113-21.641-61.461-14.449c-2.225-3.373-4.802-6.549-7.726-9.472c-10.852-10.851-25.208-16.938-40.064-17.514
			c7.662-4.348,16.216-6.579,24.875-6.378c11.802,0.283,22.386,5.083,29.801,13.514c1.977,2.247,4.738,3.396,7.513,3.396
			c2.346,0,4.701-0.82,6.601-2.491c4.147-3.647,4.552-9.966,0.904-14.113c-11.145-12.671-26.892-19.88-44.339-20.299
			c-12.975-0.313-25.727,3.181-36.937,9.969c-1.516-3.415-3.356-6.689-5.506-9.784c14.667-8.596,72.619-38.817,108.264-3.172
			c29.711,29.711,56.788,43.702,80.874,41.841C462.666,300.697,442.413,314.182,425.41,319.033z"/>
	</g>
</g>
<g>
	<g>
		<path d="M266.764,71.977l-0.16-0.247c-2.987-4.646-9.174-5.991-13.819-3.004c-4.646,2.986-5.991,9.173-3.004,13.819l0.212,0.328
			c1.916,2.949,5.122,4.553,8.395,4.553c1.867,0,3.757-0.522,5.439-1.616C268.458,82.801,269.773,76.607,266.764,71.977z"/>
	</g>
</g>
<g>
	<g>
		<path d="M371.76,140.493c-1.86-1.86-4.44-2.93-7.07-2.93s-5.21,1.07-7.07,2.93c-1.86,1.86-2.93,4.44-2.93,7.07
			s1.07,5.21,2.93,7.07c1.86,1.861,4.44,2.93,7.07,2.93s5.21-1.07,7.07-2.93s2.93-4.44,2.93-7.07S373.62,142.353,371.76,140.493z"/>
	</g>
</g>
<g>
</g>
<g>
</g>
<g>
</g>
<g>
</g>
<g>
</g>
<g>
</g>
<g>
</g>
<g>
</g>
<g>
</g>
<g>
</g>
<g>
</g>
<g>
</g>
<g>
</g>
<g>
</g>
<g>
</g>
</svg>
